<svg height="512pt" 
viewBox="0 -104 512 512"
 width="512pt" 
 xmlns="http://www.w3.org/2000/svg">
 <path d="m458.757812 47.546875s-4.816406-4.359375-5.015624-4.5c-11.203126-9.417969-28.347657-17.714844-51.105469-24.601563-39.308594-11.894531-91.382813-18.445312-146.636719-18.445312-14.25 0-28.484375.441406-42.308594 1.3125-5.511718.347656-9.699218 5.097656-9.351562 10.609375s5.09375 9.695313 10.609375 9.351563c13.40625-.84375 27.21875-1.273438 41.050781-1.273438 53.34375 0 103.359375 6.246094 140.84375 17.589844 38.703125 11.710937 52.433594 25.59375 52.433594 33.925781 0 11.402344-22.695313 27.875-73.296875 39.40625l-116.117188-48.632813c-3.59375-1.503906-7.734375-.785156-10.609375 1.84375l-60.566406 55.382813c-86.84375-9.359375-125.964844-33.542969-125.964844-48 0-3.1875 1.949219-7.101563 6.378906-11.359375l1.59375-1.453125c8.515626-7.375 24.429688-15.625 50.550782-22.878906 5.320312-1.480469 8.4375-6.992188 6.957031-12.3125-1.480469-5.320313-6.992187-8.4375-12.3125-6.957031-28.789063 7.996093-49.402344 18.058593-61.269531 29.738281l-1.378906 1.253906c-33.835938 30.828125-53.242188 74.757813-53.242188 120.53125 0 27.640625 7.09375 55.019531 20.519531 79.183594l1.851563 3.339843c.601562 1.082032 1.398437 2.042969 2.351562 2.832032 14.738282 12.25 60.464844 41.734375 166.53125 50.957031.289063.023437.578125.039063.867188.039063 2.4375 0 4.796875-.898438 6.632812-2.527344.015625-.011719.03125-.015625.046875-.03125l59.171875-53.128906 113.21875 47.417968c.019532.007813.035156.011719.054688.019532 1.203125.496093 2.496094.761718 3.808594.761718.621093 0 1.25-.058594 1.875-.175781 68.203124-13.019531 99.890624-34.640625 110.347656-43.332031.953125-.789063 1.75-1.75 2.351562-2.832032l1.855469-3.339843c13.421875-24.164063 20.515625-51.542969 20.515625-79.183594 0-45.773437-19.40625-89.707031-53.242188-120.53125zm-256.640624 183.421875c2.539062.757812 5.222656 1.167969 8 1.167969 15.441406 0 28-12.558594 28-28 0-15.4375-12.558594-28-28-28-2.777344 0-5.460938.414062-8 1.171875v-42.976563l43.882812-40.121093v138.402343l-43.882812 39.398438zm0-26.832031c0-4.410157 3.589843-8 8-8 4.414062 0 8 3.589843 8 8 0 4.414062-3.585938 8-8 8-4.410157 0-8-3.585938-8-8zm63.882812-117.59375 99.054688 41.488281v143.875l-99.054688-41.484375zm-83.882812 196.882812c-91.371094-9.5625-131.238282-34.832031-143.203126-44.238281l-.914062-1.640625c-11.773438-21.199219-18-45.21875-18-69.46875 0-29.71875 9.332031-58.546875 26.210938-82.488281 15 29.15625 75.976562 46.316406 135.90625 53.308594zm291.882812-45.878906-.914062 1.644531c-9.84375 7.761719-35.421876 23.953125-88.03125 35.492188v-145.355469c43.550781-10.503906 71.355468-25.675781 80.707031-43.777344 16.894531 23.949219 26.238281 52.792969 26.238281 82.527344 0 24.25-6.226562 48.269531-18 69.46875zm0 0"/><path d="m332.894531 139.03125c-15.992187 0-29 13.007812-29 29s13.007813 29 29 29c15.992188 0 29-13.007812 29-29s-13.007812-29-29-29zm0 38c-4.964843 0-9-4.035156-9-9s4.035157-9 9-9c4.960938 0 9 4.035156 9 9s-4.039062 9-9 9zm0 0"/><path d="m292 202.714844c-2.628906 0-5.210938 1.066406-7.070312 2.929687-1.859376 1.859375-2.929688 4.441407-2.929688 7.070313s1.070312 5.210937 2.929688 7.066406c1.859374 1.863281 4.441406 2.933594 7.070312 2.933594s5.210938-1.070313 7.070312-2.933594c1.859376-1.855469 2.929688-4.4375 2.929688-7.066406s-1.070312-5.210938-2.929688-7.070313c-1.859374-1.859375-4.441406-2.929687-7.070312-2.929687zm0 0"/><path d="m293.570312 134.285156c1.859376-1.859375 2.929688-4.441406 2.929688-7.070312s-1.070312-5.210938-2.929688-7.070313c-1.859374-1.859375-4.441406-2.929687-7.070312-2.929687s-5.210938 1.070312-7.070312 2.929687c-1.859376 1.859375-2.929688 4.441407-2.929688 7.070313s1.070312 5.210937 2.929688 7.070312c1.859374 1.859375 4.441406 2.929688 7.070312 2.929688s5.210938-1.070313 7.070312-2.929688zm0 0"/><path d="m163.671875 27.34375c2.628906 0 5.207031-1.070312 7.066406-2.929688 1.863281-1.871093 2.933594-4.441406 2.933594-7.078124 0-2.632813-1.070313-5.210938-2.933594-7.070313-1.859375-1.863281-4.4375-2.921875-7.066406-2.921875-2.640625 0-5.210937 1.058594-7.070313 2.921875-1.871093 1.859375-2.929687 4.4375-2.929687 7.070313 0 2.636718 1.058594 5.207031 2.929687 7.078124 1.859376 1.859376 4.4375 2.929688 7.070313 2.929688zm0 0"/></svg>