<svg id="Layer_1" data-name="Layer 1" xmlns="http://www.w3.org/2000/svg" xmlns:xlink="http://www.w3.org/1999/xlink" viewBox="0 0 147.22 76.79"><defs><style>.cls-1{fill:none;}.cls-2{fill:#3db0d4;}.cls-3{fill:#7251eb;}.cls-4{clip-path:url(#clip-path);}</style><clipPath id="clip-path" transform="translate(-1.71 -2.67)"><rect class="cls-1" width="151.5" height="82.63"/></clipPath></defs><rect class="cls-2" x="111.4" y="22.25" width="19.64" height="3.96"/><rect class="cls-2" x="110.63" y="50.56" width="20.41" height="3.96"/><rect class="cls-2" x="16.72" y="50.56" width="20.41" height="3.96"/><rect class="cls-2" x="16.72" y="22.22" width="20.41" height="3.96"/><polygon class="cls-2" points="56.93 20.62 64.08 20.62 67.43 42.94 71.61 20.62 77.64 20.62 81.81 42.96 85.18 20.62 92.28 20.62 85.96 56.17 78.76 56.17 74.61 35.22 70.51 56.17 63.28 56.17 56.93 20.62"/><polygon class="cls-3" points="55.93 21.28 63.09 21.28 66.43 43.6 70.61 21.28 76.64 21.28 80.81 43.62 84.18 21.28 91.28 21.28 84.96 56.83 77.76 56.83 73.61 35.88 69.51 56.83 62.28 56.83 55.93 21.28"/><g class="cls-4"><path class="cls-3" d="M62.6,2.67V7S39.85,14.64,39.15,40.52C39.77,66.08,58.64,73.07,62.6,75v4.51s-27.49-8.2-27.49-38.94C35.19,10.3,62.6,2.67,62.6,2.67" transform="translate(-1.71 -2.67)"/><path class="cls-3" d="M88.32,2.67V7s22.75,7.64,23.45,33.52C111.15,66.08,92.29,73.07,88.32,75v4.51s27.5-8.2,27.5-38.94c-.08-30.22-27.5-37.85-27.5-37.85" transform="translate(-1.71 -2.67)"/></g><rect class="cls-3" y="36.23" width="33.44" height="4.16"/><rect class="cls-3" x="113.78" y="36.23" width="33.44" height="4.08"/></svg>