<?xml version="1.0" encoding="utf-8"?>
<!-- Generator: Adobe Illustrator 19.0.0, SVG Export Plug-In . SVG Version: 6.00 Build 0)  -->
<svg version="1.1" xmlns="http://www.w3.org/2000/svg" xmlns:xlink="http://www.w3.org/1999/xlink" x="0px" y="0px"
	 viewBox="0 0 151.5 88" style="enable-background:new 0 0 151.5 88;" xml:space="preserve">
<style type="text/css">
	.st0{fill:#7251EB;stroke:#3DB0D4;stroke-width:4;}
	.st1{fill:none;stroke:#7251EB;stroke-width:4;}
	.st2{fill:#F3F3F3;stroke:#F3F3F3;stroke-width:4;}
	.st3{fill:#FFFFFF;stroke:#7251EB;stroke-width:4;}
	.st4{display:none;fill:#3DB0D4;}
	.st5{font-family:'RobotoCondensed-Bold';}
	.st6{font-size:50px;}
	.st7{display:none;fill:#7251EB;}
	.st8{fill:#7251EB;}
</style>
<g id="Layer_2">
	<line class="st0" x1="111.8" y1="57.8" x2="132.8" y2="57.8"/>
	<line class="st0" x1="111.8" y1="29.5" x2="132.8" y2="29.5"/>
	<line class="st0" x1="18.5" y1="57.8" x2="39.5" y2="57.8"/>
	<line class="st0" x1="18.5" y1="29.5" x2="39.5" y2="29.5"/>
	<circle class="st1" cx="75.5" cy="43.7" r="38.4"/>
	<rect x="64.6" y="4.3" class="st2" width="21.8" height="79.5"/>
	<line class="st3" x1="113.9" y1="43.7" x2="149.3" y2="43.7"/>
	<line class="st3" x1="1.7" y1="43.7" x2="37.1" y2="43.7"/>
	<text transform="matrix(1 0 0 1 57.5667 61.5419)" class="st4 st5 st6">W </text>
	<text transform="matrix(1 0 0 1 56.5665 62.125)" class="st7 st5 st6">W </text>
</g>
<g id="Laag_2">
	<polygon class="st8" points="57.6,26.6 64.8,26.6 68.1,48.9 72.3,26.6 78.3,26.6 82.5,48.9 85.9,26.6 93,26.6 86.7,62.1 79.5,62.1 
		75.3,41.2 71.2,62.1 64,62.1 	"/>
</g>
</svg>
